<svg width="62" height="55" viewBox="0 0 62 55" fill="none" xmlns="http://www.w3.org/2000/svg">
<rect x="1" y="1" width="60" height="53" rx="14" stroke="#0166F4" stroke-width="2"/>
<g clip-path="url(#clip0_1_1337)">
<path fill-rule="evenodd" clip-rule="evenodd" d="M21.3333 14.1333C20.4846 14.1333 19.6707 14.4705 19.0706 15.0706C18.4705 15.6707 18.1333 16.4846 18.1333 17.3333V22.6667H16V17.3333C16 15.9188 16.5619 14.5623 17.5621 13.5621C18.5623 12.5619 19.9188 12 21.3333 12H26.6667V14.1333H21.3333ZM42.6667 14.1333H37.3333V12H42.6667C44.0812 12 45.4377 12.5619 46.4379 13.5621C47.4381 14.5623 48 15.9188 48 17.3333V22.6667H45.8667V17.3333C45.8667 16.4846 45.5295 15.6707 44.9294 15.0706C44.3293 14.4705 43.5154 14.1333 42.6667 14.1333ZM26.6667 24.8H24.5333V22.6667H26.6667V24.8ZM39.4667 24.8H37.3333V22.6667H39.4667V24.8ZM26.4533 30.56C27.0992 31.4211 27.9366 32.12 28.8993 32.6014C29.8621 33.0827 30.9236 33.3333 32 33.3333C33.0764 33.3333 34.138 33.0827 35.1007 32.6014C36.0634 32.12 36.9008 31.4211 37.5467 30.56L39.2533 31.84C35.6267 36.6763 28.3733 36.6763 24.7467 31.84L26.4533 30.56ZM16 38.6667V33.3333H18.1333V38.6667C18.1333 39.5154 18.4705 40.3293 19.0706 40.9294C19.6707 41.5295 20.4846 41.8667 21.3333 41.8667H26.6667V44H21.3333C19.9188 44 18.5623 43.4381 17.5621 42.4379C16.5619 41.4377 16 40.0812 16 38.6667ZM48 33.3333V38.6667C48 40.0812 47.4381 41.4377 46.4379 42.4379C45.4377 43.4381 44.0812 44 42.6667 44H37.3333V41.8667H42.6667C43.5154 41.8667 44.3293 41.5295 44.9294 40.9294C45.5295 40.3293 45.8667 39.5154 45.8667 38.6667V33.3333H48Z" fill="#0166F4"/>
</g>
<defs>
<clipPath id="clip0_1_1337">
<rect width="32" height="32" fill="white" transform="translate(16 12)"/>
</clipPath>
</defs>
</svg>
