<svg width="206" height="37" viewBox="0 0 206 37" fill="none" xmlns="http://www.w3.org/2000/svg">
<path d="M9.24477 5.59983C1.11586 8.24203 -0.0422949 16.609 0.394743 20.4622H9.24477C12.7641 25.7466 17.0482 23.765 18.7503 22.1136L16.4559 21.1228L22.3559 18.1503L24.9781 24.0952L22.6837 23.4347C17.9637 30.5686 11.1022 28.1686 8.26142 26.0769L10.2281 23.4347L2.03363 23.1044L2.68919 31.6916L4.98364 29.3797C8.65475 32.8145 14.817 32.7925 17.4392 32.3521C28.4526 29.1815 29.0207 20.4622 27.9282 16.4989H19.4059C16.2592 10.6861 11.7577 13.1962 9.90032 15.1778L11.2114 15.8384L6.29475 18.4806L4.32808 12.2053L6.29475 13.1962C12.0637 6.06222 18.5318 9.12277 21.0448 11.5448L19.4059 13.1962H26.2893L25.9615 6.59066L24.3226 8.24204C22.6837 6.26038 17.3737 2.95763 9.24477 5.59983Z" fill="#FCFFFF"/>
<path d="M10.8837 3.61818V0.31543H13.5059V3.61818H10.8837Z" fill="#FCFFFF"/>
<path d="M15.4726 3.61818V0.31543H17.767V3.61818H15.4726Z" fill="#FCFFFF"/>
<path d="M10.8837 36.3154V33.0127H13.5059V36.3154H10.8837Z" fill="#FCFFFF"/>
<path d="M15.4726 36.3154V33.0127H17.767V36.3154H15.4726Z" fill="#FCFFFF"/>
<path d="M9.24477 5.59983C1.11586 8.24203 -0.0422949 16.609 0.394743 20.4622H9.24477C12.7641 25.7466 17.0482 23.765 18.7503 22.1136L16.4559 21.1228L22.3559 18.1503L24.9781 24.0952L22.6837 23.4347C17.9637 30.5686 11.1022 28.1686 8.26142 26.0769L10.2281 23.4347L2.03363 23.1044L2.68919 31.6916L4.98364 29.3797C8.65475 32.8145 14.817 32.7925 17.4392 32.3521C28.4526 29.1815 29.0207 20.4622 27.9282 16.4989H19.4059C16.2592 10.6861 11.7577 13.1962 9.90032 15.1778L11.2114 15.8384L6.29475 18.4806L4.32808 12.2053L6.29475 13.1962C12.0637 6.06222 18.5318 9.12277 21.0448 11.5448L19.4059 13.1962H26.2893L25.9615 6.59066L24.3226 8.24204C22.6837 6.26038 17.3737 2.95763 9.24477 5.59983Z" stroke="#FCFFFF" stroke-width="0.630858"/>
<path d="M10.8837 3.61818V0.31543H13.5059V3.61818H10.8837Z" stroke="#FCFFFF" stroke-width="0.630858"/>
<path d="M15.4726 3.61818V0.31543H17.767V3.61818H15.4726Z" stroke="#FCFFFF" stroke-width="0.630858"/>
<path d="M10.8837 36.3154V33.0127H13.5059V36.3154H10.8837Z" stroke="#FCFFFF" stroke-width="0.630858"/>
<path d="M15.4726 36.3154V33.0127H17.767V36.3154H15.4726Z" stroke="#FCFFFF" stroke-width="0.630858"/>
<g clip-path="url(#clip0_1_1286)">
<path d="M58.9315 11.1163C59.0457 12.9324 58.3342 13.5037 56.65 13.4471C52.9249 13.3219 49.1918 13.3726 45.4632 13.4285C42.4038 13.4742 41.7138 14.2507 41.665 17.7503C44.787 17.7503 47.915 17.7503 51.4794 17.741C52.9161 17.7076 53.9164 17.6836 55.0965 17.7053C55.6435 17.7213 56.0106 17.6915 56.5397 17.6972C56.9201 17.71 57.1387 17.6872 57.3572 17.6644C59.6039 18.1305 58.478 19.6887 58.604 21.1729C53.7253 21.1729 49.0435 21.125 44.3641 21.2112C43.3641 21.2296 41.6907 20.3865 41.6282 22.5131C41.576 24.2871 42.3055 25.6123 44.2005 25.7176C46.8671 25.8658 49.5448 25.8105 52.2177 25.8501C54.3236 25.8814 56.4293 25.9247 58.7135 26.2135C58.9309 26.8053 58.9698 27.1463 59.0087 27.4872C58.8965 28.197 58.7842 28.9068 58.6527 29.7381C53.4916 29.7381 48.3918 30.0047 43.3339 29.6573C38.943 29.3559 37.3062 27.1536 37.2131 22.7102C37.1841 21.3303 37.2066 19.9493 37.1976 18.1697C37.1616 17.2509 37.1336 16.7311 37.1664 16.023C37.9214 11.2678 39.7909 9.55205 44.6033 9.45432C49.3183 9.35856 54.0375 9.47313 58.7549 9.49541C58.7999 9.97688 58.845 10.4583 58.9315 11.1163Z" fill="white"/>
<path d="M85.1169 31.0936C85.1182 27.5086 85.165 24.1036 85.1843 20.6985C85.2121 15.7888 86.0015 14.7871 90.9019 13.6986C91.606 13.6685 92.1294 13.6915 93.0709 13.724C96.1954 13.6117 98.9019 13.49 101.608 13.3684C101.651 13.4468 101.693 13.5252 101.863 13.6447C106.644 15.03 107.227 15.8089 107.247 20.7063C107.279 29.0694 106.501 29.8438 98.0713 29.8421C95.2492 29.8416 92.4271 29.8421 89.286 29.8421C89.286 31.0977 89.2881 32.0529 89.2856 33.0081C89.2763 36.5855 89.2757 36.5855 85.3101 36.0721C85.2633 35.0119 85.2145 33.904 85.1186 32.5795C85.0977 31.9997 85.1239 31.6366 85.1169 31.0936ZM99.9064 17.1695C98.9332 17.1675 97.96 17.1646 96.9868 17.1635C88.9088 17.1543 88.4964 17.6203 89.3988 25.7573C89.4153 25.9061 89.5296 26.044 89.7261 26.4531C92.3319 26.4531 95.0654 26.4698 97.7986 26.4496C103.018 26.4109 103.266 26.1442 103.139 20.8928C103.133 20.6489 103.138 20.4045 103.128 20.1609C103.048 18.3735 102.305 17.2077 99.9064 17.1695Z" fill="white"/>
<path d="M166.268 23.5446C166.337 21.8444 166.338 20.138 166.491 18.4454C166.716 15.9515 168.042 14.2821 170.598 14.1007C174.064 13.8548 177.546 13.8419 181.247 13.6874C181.836 13.6695 182.198 13.6931 182.739 13.6894C186.5 14.6247 188.369 18.5355 186.755 22.0417C186.501 22.5927 185.316 22.9642 184.551 22.9839C180.981 23.0755 177.407 23.0142 173.834 23.0083C172.873 23.0068 171.911 23.0081 170.872 23.0081C170.302 25.5064 171.496 26.375 173.492 26.4182C176.819 26.4901 180.149 26.4426 183.478 26.4451C184.353 26.4457 185.228 26.4452 186.28 26.4452C186.28 27.6302 186.28 28.5583 186.28 29.4147C180.763 29.4147 175.278 29.601 169.817 29.3266C167.509 29.2107 166.633 27.0809 166.379 24.5444C166.321 23.9859 166.294 23.7652 166.268 23.5446ZM173.592 17.1668C171.576 17.2211 170.279 17.9152 170.816 20.3639C174.823 20.3639 178.797 20.3639 182.729 20.3639C183.32 17.8475 182.377 17.0032 180.116 17.137C178.098 17.2564 176.067 17.1591 173.592 17.1668Z" fill="white"/>
<path d="M202.202 13.9702C203.158 14.0283 204.037 14.1093 204.885 14.1873C205.726 17.2111 205.529 17.4733 202.528 17.4614C200.903 17.4549 199.278 17.4389 197.654 17.4611C194.422 17.5052 193.896 18.0465 193.875 21.3752C193.858 24.2006 193.872 27.0262 193.872 29.7802C189.924 30.544 189.804 30.4492 189.794 26.8619C189.787 24.4998 189.745 22.1369 189.789 19.7756C189.855 16.2456 190.694 15.2012 194.199 14.1637C194.557 14.0587 194.78 14.0605 195.374 14.0462C197.085 13.938 198.424 13.8459 199.763 13.7538C199.763 13.7538 199.858 13.9406 200.111 13.9711C200.902 13.9793 201.439 13.9571 201.976 13.9349C201.976 13.9349 202.125 13.9932 202.202 13.9702Z" fill="white"/>
<path d="M101.388 13.3423C98.9015 13.49 96.195 13.6117 93.2646 13.6909C95.7501 13.5377 98.4594 13.427 101.388 13.3423Z" fill="white"/>
<path d="M133.66 27.4055C133.509 25.7662 133.357 24.1269 133.194 22.1218C133.161 21.5378 133.141 21.3196 133.121 21.1015C133.95 14.4103 134.751 13.7225 141.631 13.7447C144.711 13.7546 147.791 13.7464 151.153 13.7464C151.153 11.8084 151.153 10.0595 151.153 8.40309C154.99 7.24773 155.461 7.57736 155.452 11.1092C155.441 15.3552 155.497 19.6024 155.408 23.8467C155.323 27.9169 153.884 29.5454 149.867 29.7722C146.215 29.9784 142.521 30.0564 138.889 29.7182C137.193 29.5602 135.6 28.2864 133.772 27.4671C133.584 27.416 133.66 27.4055 133.66 27.4055ZM148.623 26.3915C149.454 25.6545 150.87 25.0086 151 24.1628C151.34 21.9673 151.114 19.6839 151.114 17.1938C148.411 17.1938 145.916 17.1798 143.422 17.1965C137.395 17.2369 137.279 17.4202 137.489 23.3557C137.567 25.5466 138.572 26.4475 140.647 26.4347C143.162 26.4193 145.678 26.4292 148.623 26.3915Z" fill="white"/>
<path d="M123.811 13.7528C125.014 13.7793 125.998 13.7348 126.964 13.846C129.019 14.0824 130.119 15.2229 130.313 17.3585C130.812 22.8524 130.707 23.0069 125.276 23.0096C121.629 23.0114 117.981 23.0099 114.213 23.0099C113.753 25.4985 114.919 26.384 116.933 26.4229C120.269 26.4872 123.607 26.4517 126.944 26.4575C127.811 26.459 128.678 26.4577 129.496 26.4577C130.153 28.8168 129.925 30.0193 127.309 29.895C123.654 29.7214 119.984 29.9165 116.323 29.8494C111.463 29.7603 109.967 28.1888 109.926 23.3111C109.914 21.9236 109.9 20.5344 109.953 19.1485C110.085 15.683 111.472 14.122 115.043 13.8579C117.877 13.6483 120.736 13.7749 123.811 13.7528ZM114.318 18.2831C114.222 18.9591 114.126 19.6352 114.014 20.4271C118.227 20.4271 122.144 20.4271 126.754 20.4271C126.143 19.1374 125.717 17.4554 125.287 17.4545C121.715 17.4466 118.144 17.7492 114.318 18.2831Z" fill="white"/>
<path d="M163.419 22.578C163.378 23.88 163.309 25.1818 163.302 26.484C163.282 30.092 163.264 30.1165 159.297 29.6372C159.297 24.4394 159.297 19.2118 159.297 14.0053C163.158 13.3827 163.29 13.4861 163.3 16.9839C163.304 18.2077 163.317 19.4314 163.335 21.0611C163.369 21.8374 163.394 22.2077 163.419 22.578Z" fill="white"/>
<path d="M119.503 11.7577C118.934 11.566 118.227 11.3928 118.217 11.1866C118.092 8.52045 121.607 5.76766 124.703 6.40967C122.915 8.25614 122.847 11.3366 119.503 11.7577Z" fill="white"/>
<path d="M159.118 9.86888C159.102 9.48912 159.086 9.10937 159.335 8.55023C160.498 8.67431 161.396 8.97775 162.294 9.28118C162.008 10.1066 161.722 10.932 161.436 11.7574C161.217 11.7874 160.998 11.8173 160.526 11.6899C159.888 10.978 159.503 10.4234 159.118 9.86888Z" fill="white"/>
<path d="M161.633 11.792C161.723 10.932 162.009 10.1066 162.295 9.28119C161.396 8.97775 160.498 8.67432 159.41 8.37343C160.411 8.16253 161.601 7.94902 163.104 7.67957C162.792 9.40823 164.533 11.2245 161.633 11.792Z" fill="white"/>
<path d="M159.075 10.0527C159.503 10.4234 159.888 10.978 160.363 11.6547C159.979 11.2635 159.506 10.75 159.075 10.0527Z" fill="white"/>
<path d="M62.3344 15.4396C62.1321 15.021 61.9297 14.6024 61.7112 14.1503C67.1591 12.0059 68.8682 17.3937 72.2473 19.2832C74.5836 17.4082 76.7457 15.4578 79.1464 13.8702C79.9256 13.3549 81.3292 13.7892 82.4041 13.7892C79.848 16.4173 77.3578 18.9777 74.7371 21.6722C77.6944 24.3839 80.3018 26.7749 83.1545 29.3907C77.2942 31.3793 75.3196 26.114 71.8234 24.1633C68.2048 25.9051 66.455 31.1944 60.6665 29.4635C63.5783 26.7767 66.2614 24.3008 69.1538 21.6317C68.3776 20.9057 67.6914 20.2638 66.822 19.4658C66.5745 19.1764 66.47 19.0963 66.3251 19.0693C65.3965 18.1421 64.4679 17.215 63.3153 16.1062C62.839 15.7629 62.5867 15.6013 62.3344 15.4396Z" fill="white"/>
<path d="M55.0967 17.7053C55.3424 17.5823 55.7679 17.5051 56.2857 17.5448C56.0108 17.6915 55.6437 17.7213 55.0967 17.7053Z" fill="white"/>
<path d="M56.1542 15.9477C56.1426 15.9267 56.1658 15.9688 56.1542 15.9477V15.9477Z" fill="white"/>
</g>
<defs>
<clipPath id="clip0_1_1286">
<rect width="169" height="30" fill="white" transform="translate(36.3154 6.31543)"/>
</clipPath>
</defs>
</svg>
