<svg width="17" height="18" viewBox="0 0 17 18" fill="none" xmlns="http://www.w3.org/2000/svg">
<path fill-rule="evenodd" clip-rule="evenodd" d="M6.47947 15.9957C6.93773 16.4788 7.52603 16.7442 8.13645 16.7442H8.13733C8.7504 16.7442 9.34136 16.4788 9.8005 15.9949C10.0464 15.7379 10.4658 15.7169 10.7374 15.9488C11.0098 16.1807 11.0319 16.5784 10.7869 16.8354C10.0721 17.5864 9.13169 18 8.13733 18H8.13556C7.14385 17.9992 6.20523 17.5856 5.49307 16.8346C5.24802 16.5776 5.27014 16.1799 5.54261 15.9488C5.81509 15.7161 6.23442 15.737 6.47947 15.9957ZM8.1805 0C12.1128 0 14.7544 2.89842 14.7544 5.60512C14.7544 6.9974 15.1286 7.58763 15.5259 8.21386C15.9187 8.83172 16.3636 9.5333 16.3636 10.8594C16.0549 14.2476 12.3172 14.5239 8.1805 14.5239C4.04382 14.5239 0.305232 14.2476 1.17097e-05 10.913C-0.00263046 9.5333 0.442355 8.83172 0.835145 8.21386L0.973812 7.99297C1.31523 7.43765 1.60657 6.8336 1.60657 5.60512C1.60657 2.89842 4.24818 0 8.1805 0ZM8.1805 1.25581C5.08861 1.25581 2.93357 3.54809 2.93357 5.60512C2.93357 7.34567 2.42312 8.15023 1.97194 8.86019C1.61011 9.43033 1.32436 9.88074 1.32436 10.8594C1.4721 12.4384 2.57351 13.2681 8.1805 13.2681C13.7565 13.2681 14.8924 12.4016 15.0393 10.805C15.0366 9.88074 14.7509 9.43033 14.3891 8.86019C13.9379 8.15023 13.4274 7.34567 13.4274 5.60512C13.4274 3.54809 11.2724 1.25581 8.1805 1.25581Z" fill="black"/>
</svg>
