<svg width="24" height="24" viewBox="0 0 24 24" fill="none" xmlns="http://www.w3.org/2000/svg">
<g clip-path="url(#clip0_1_2145)">
<path fill-rule="evenodd" clip-rule="evenodd" d="M11 7C11 5.93913 11.4214 4.92172 12.1716 4.17157C12.9217 3.42143 13.9391 3 15 3C16.0609 3 17.0783 3.42143 17.8284 4.17157C18.5786 4.92172 19 5.93913 19 7C19 8.06087 18.5786 9.07828 17.8284 9.82843C17.0783 10.5786 16.0609 11 15 11C13.9391 11 12.9217 10.5786 12.1716 9.82843C11.4214 9.07828 11 8.06087 11 7ZM11 13C9.67392 13 8.40215 13.5268 7.46447 14.4645C6.52678 15.4021 6 16.6739 6 18C6 18.7956 6.31607 19.5587 6.87868 20.1213C7.44129 20.6839 8.20435 21 9 21H21C21.7956 21 22.5587 20.6839 23.1213 20.1213C23.6839 19.5587 24 18.7956 24 18C24 16.6739 23.4732 15.4021 22.5355 14.4645C21.5979 13.5268 20.3261 13 19 13H11Z" fill="#92BAF4"/>
<path d="M13 12.25C14.525 12.25 15.9871 12.8562 17.0654 13.9346C18.1438 15.0129 18.75 16.475 18.75 18C18.75 18.9946 18.3546 19.9481 17.6514 20.6514C16.9481 21.3546 15.9946 21.75 15 21.75H3C2.00544 21.75 1.05189 21.3546 0.348633 20.6514C-0.354629 19.9481 -0.75 18.9946 -0.75 18C-0.75 16.475 -0.143764 15.0129 0.93457 13.9346C2.0129 12.8562 3.47501 12.25 5 12.25H13ZM9 2.25C10.2598 2.25 11.4676 2.7508 12.3584 3.6416C13.2492 4.5324 13.75 5.74022 13.75 7C13.75 8.25978 13.2492 9.4676 12.3584 10.3584C11.4676 11.2492 10.2598 11.75 9 11.75C7.74022 11.75 6.5324 11.2492 5.6416 10.3584C4.7508 9.4676 4.25 8.25978 4.25 7C4.25 5.74022 4.7508 4.5324 5.6416 3.6416C6.5324 2.7508 7.74022 2.25 9 2.25Z" fill="#92BAF4" stroke="white" stroke-width="1.5"/>
</g>
<defs>
<clipPath id="clip0_1_2145">
<rect width="24" height="24" fill="white"/>
</clipPath>
</defs>
</svg>
