<svg width="22" height="22" viewBox="0 0 22 22" fill="none" xmlns="http://www.w3.org/2000/svg">
<g clip-path="url(#clip0_1_2155)">
<path d="M7.52274 10.7772C7.60797 10.8623 7.67559 10.9634 7.72172 11.0747C7.76785 11.186 7.79159 11.3053 7.79159 11.4257C7.79159 11.5462 7.76785 11.6655 7.72172 11.7768C7.67559 11.8881 7.60797 11.9892 7.52274 12.0743L5.84799 13.75H14.6663C14.9094 13.75 15.1426 13.8465 15.3145 14.0184C15.4864 14.1903 15.583 14.4235 15.583 14.6666C15.583 14.9097 15.4864 15.1429 15.3145 15.3148C15.1426 15.4867 14.9094 15.5833 14.6663 15.5833H5.84799L7.52366 17.259C7.60883 17.3441 7.6764 17.4451 7.72252 17.5563C7.76863 17.6676 7.79239 17.7868 7.79243 17.9072C7.79247 18.0276 7.7688 18.1468 7.72276 18.2581C7.67673 18.3693 7.60923 18.4704 7.52412 18.5556C7.43901 18.6407 7.33796 18.7083 7.22674 18.7544C7.11552 18.8005 6.99631 18.8243 6.8759 18.8243C6.7555 18.8244 6.63627 18.8007 6.52501 18.7547C6.41376 18.7086 6.31266 18.6411 6.22749 18.556L2.98616 15.3147C2.81431 15.1428 2.71777 14.9097 2.71777 14.6666C2.71777 14.4236 2.81431 14.1904 2.98616 14.0185L6.22749 10.7772C6.3994 10.6054 6.63251 10.5088 6.87558 10.5088C7.11865 10.5088 7.35176 10.6054 7.52366 10.7772H7.52274ZM14.4766 3.44387C14.6344 3.28604 14.8444 3.19123 15.0672 3.17722C15.29 3.16322 15.5102 3.23097 15.6866 3.36779L15.7727 3.44387L19.0141 6.6852C19.1719 6.84305 19.2667 7.05306 19.2807 7.27583C19.2947 7.4986 19.227 7.71883 19.0902 7.8952L19.0141 7.98137L15.7727 11.2218C15.6078 11.3862 15.3864 11.4816 15.1536 11.4887C14.9209 11.4959 14.6941 11.4141 14.5194 11.2601C14.3447 11.106 14.2352 10.8913 14.2131 10.6594C14.191 10.4276 14.258 10.196 14.4005 10.0118L14.4766 9.92562L16.1513 8.24995H7.33299C7.09935 8.2497 6.87463 8.16023 6.70474 7.99984C6.53485 7.83946 6.43261 7.62025 6.41892 7.38701C6.40523 7.15377 6.48111 6.92411 6.63107 6.74494C6.78103 6.56578 6.99374 6.45063 7.22574 6.42304L7.33299 6.41662H16.1522L14.4766 4.73912C14.3047 4.56722 14.2082 4.3341 14.2082 4.09104C14.2082 3.84797 14.3047 3.61577 14.4766 3.44387Z" fill="white"/>
</g>
<defs>
<clipPath id="clip0_1_2155">
<rect width="22" height="22" fill="white"/>
</clipPath>
</defs>
</svg>
